<svg width="1163" height="989" viewBox="0 0 1163 989" fill="none" xmlns="http://www.w3.org/2000/svg">
<path fill-rule="evenodd" clip-rule="evenodd" d="M1157.69 659.088L1113.3 647.479C1080.5 638.9 977.501 654.933 882.267 708.076C799.189 754.435 672.48 833.352 586.768 857.356C501.057 881.36 448.43 841.265 395.504 800.4C342.269 760.146 289.951 719.44 236.716 679.186C183.481 638.933 131.163 598.226 60.2978 592.856C-10.8765 588.097 -98.7641 617.767 -143.625 633.056L-187.568 647.891L-62.9208 401.265L-30.7304 409.685C2.0674 418.263 66.4483 435.103 131.437 452.101C196.425 469.099 260.806 485.939 325.794 502.937C390.782 519.936 455.163 536.775 520.152 553.773C585.14 570.772 572.988 567.593 637.976 584.592C702.965 601.59 722.701 545.314 865.947 582.781C900.649 591.858 1080.5 638.9 1113.3 647.479L1157.69 659.088Z" fill="#7177F1" fill-opacity="0.3"/>
<path fill-rule="evenodd" clip-rule="evenodd" d="M1135 643.017L1102.81 634.597C1070.01 626.019 1005.63 609.179 913.695 645.491C821.45 682.423 702.868 772.825 616.889 797.359C530.91 821.893 478.434 781.498 425.665 740.324C372.582 699.77 320.419 658.755 267.336 618.201C214.254 577.646 162.091 536.631 91.1503 531.411C19.8961 526.81 -68.2955 557.082 -113.312 572.679L-157.408 587.816L-31.1484 338L1.04203 346.42C33.8398 354.998 98.2207 371.838 163.209 388.836C228.197 405.835 292.578 422.674 357.566 439.672C422.555 456.671 486.936 473.51 551.924 490.509C616.912 507.507 681.293 524.346 746.281 541.345C811.27 558.343 875.65 575.183 940.639 592.181C1005.63 609.179 1070.01 626.019 1102.81 634.597L1135 643.017Z" fill="#9297EF"/>
<path fill-rule="evenodd" clip-rule="evenodd" d="M924.019 623.443L882.206 612.506C851.309 604.425 791.534 545.817 769.485 461.997C750.251 388.877 728.032 271.007 687.534 213.992C647.036 156.976 574.633 164.368 501.349 172.222C428.375 179.464 355.663 187.467 282.688 194.71C209.714 201.952 137.002 209.955 81.6572 182.315C26.6218 154.062 -10.5206 91.6884 -29.3546 59.74L-47.9258 28.5532L-172.573 275.18L-142.249 283.111C-111.352 291.193 -50.7029 307.056 10.5184 323.069C71.7397 339.082 132.389 354.946 193.61 370.959C254.831 386.972 315.481 402.835 376.702 418.848C437.923 434.861 426.476 431.867 487.697 447.88C548.919 463.893 514.248 516.263 649.191 551.559C681.882 560.11 851.309 604.425 882.206 612.506L924.019 623.443Z" fill="#7177F1" fill-opacity="0.3"/>
<path fill-rule="evenodd" clip-rule="evenodd" d="M896.55 625.381L866.226 617.449C835.329 609.368 774.68 593.504 740.402 524.181C706.438 454.237 699.989 331.133 659.759 273.587C619.529 216.042 546.974 223.734 473.535 231.897C400.408 239.44 327.54 247.752 254.413 255.295C181.287 262.837 108.419 271.15 53.1505 243.359C-1.80487 214.948 -38.6433 151.973 -57.3214 119.716L-75.7406 88.2283L-202 338.044L-171.675 345.975C-140.779 354.057 -80.1295 369.92 -18.9082 385.933C42.3131 401.946 102.962 417.81 164.183 433.823C225.405 449.836 286.054 465.699 347.275 481.712C408.496 497.725 469.146 513.589 530.367 529.602C591.588 545.615 652.237 561.478 713.459 577.491C774.68 593.504 835.329 609.368 866.226 617.449L896.55 625.381Z" fill="#9297EF"/>
</svg>
